<?xml version="1.0" encoding="utf-8"?>
<!-- Generator: Adobe Illustrator 24.3.0, SVG Export Plug-In . SVG Version: 6.00 Build 0)  -->
<svg version="1.1" id="Layer_1" xmlns="http://www.w3.org/2000/svg" xmlns:xlink="http://www.w3.org/1999/xlink" x="0px" y="0px"
	 viewBox="0 0 1439.49 1579.88" style="enable-background:new 0 0 1439.49 1579.88;" xml:space="preserve">
<style type="text/css">
	.st0{fill:#1A437B;}
	.st1{fill:#F08537;}
</style>
<g>
	<path class="st0" d="M1417.63,1199.87H21.86c-12.07,0-21.86-9.79-21.86-21.86V21.86C0,9.79,9.79,0,21.86,0h1395.77
		c12.07,0,21.86,9.79,21.86,21.86v1156.16C1439.49,1190.08,1429.7,1199.87,1417.63,1199.87z"/>
	<path class="st1" d="M181.28,367.05c0,0,198.78-130.13,376.47-206.86l161.54,332.5l132.6-356.73c0,0,286.06,107.69,396.44,178.37
		L861.99,678.46l129.23,378.27H541.6l118.46-325.77L181.28,367.05z"/>
	<g>
		<path class="st0" d="M262.09,1382.95c0,24.33-0.75,39.12-2.26,44.38c-1.88,6.27-15.61,28.97-41.19,68.1
			c-4.02,6.14-14.36,20.38-31.04,42.69c-18.43,24.58-28.9,37.56-31.41,38.94c-3.01,1.88-22.26,2.82-57.74,2.82
			c-5.39,0-9.03-0.63-10.91-1.88c-1.63-5.14-3.7-11.22-6.21-18.24c-2.01-4.39-4.02-8.84-6.02-13.36
			c-2.88-6.52-4.33-10.85-4.33-12.97c0-2.39,1.07-3.57,3.2-3.57c34.86,0,52.29-7.97,52.29-23.89c0-1.37-8.53-13.85-25.58-37.43
			c-17.68-24.2-27.4-39.5-29.16-45.89c-1-3.64-1.5-16.62-1.5-38.94c0-4.52,0.12-11.32,0.38-20.41c0.25-9.1,0.37-15.89,0.37-20.41
			c0-3.26,2.07-4.89,6.21-4.89c6.4,0,16.08,0.19,29.06,0.56c12.98,0.38,22.66,0.56,29.06,0.56c2.63,0,3.95,1.95,3.95,5.83
			c0,3.51-0.19,8.81-0.56,15.89s-0.56,12.38-0.56,15.89c0,15.8,0.25,26.52,0.75,32.16c0.38,4.39,4.14,12.54,11.28,24.45
			c7.53,12.42,12.98,18.63,16.36,18.63c2.88,0,7.77-6.14,14.67-18.44c6.39-11.66,9.84-19.49,10.34-23.51
			c1.25-11.03,1.88-23.01,1.88-35.93c0-3.39-0.31-8.53-0.94-15.43c-0.63-6.9-0.94-12.1-0.94-15.61c0-2.38,1.32-3.57,3.95-3.57
			c6.4,0,15.95-0.25,28.68-0.75c12.73-0.5,22.29-0.75,28.69-0.75c3.26,0,5.46,1.63,6.58,4.89
			C261.21,1348.66,262.09,1362.01,262.09,1382.95z"/>
		<path class="st0" d="M473.32,1424.52c0,28.6-8.75,51.79-26.24,69.6c-17.49,17.81-40.47,26.71-68.93,26.71
			c-27.59,0-50.29-8.78-68.09-26.33c-17.81-17.55-26.71-40.13-26.71-67.72c0-29.09,8.52-52.69,25.58-70.81
			c17.05-18.12,40.13-27.18,69.22-27.18c28.33,0,51.28,8.88,68.84,26.62C464.54,1373.14,473.32,1396.18,473.32,1424.52z
			 M411.62,1424.52c0-9.9-3.08-18.65-9.22-26.23c-6.14-7.59-14.11-11.39-23.88-11.39c-9.91,0-18.06,3.89-24.45,11.66
			c-6.02,7.27-9.03,15.93-9.03,25.95c0,10.16,3.01,18.88,9.03,26.15c6.4,7.77,14.54,11.66,24.45,11.66
			c9.78,0,17.87-3.89,24.26-11.66C408.67,1443.39,411.62,1434.67,411.62,1424.52z"/>
		<path class="st0" d="M711.25,1426.58c0,26.84-7.9,49.09-23.7,66.78c-16.3,18.31-37.68,27.46-64.14,27.46
			c-9.66,0-20-2.38-31.04-7.15c-11.03-4.76-16.05-7.15-15.05-7.15c-1.63,0-2.45,1.88-2.45,5.64c0,6.4,0.31,16.02,0.94,28.87
			c0.63,12.85,0.94,22.48,0.94,28.87c0,4.01-2.07,6.01-6.2,6.01l-38.37,0.19c-8.65,0-14.24-0.31-16.74-0.94
			c-3.76-0.88-5.64-3.19-5.64-6.95l0.38-144.84c0-29.21-2.2-53.86-6.58-73.92c-0.25-1.25-0.38-2.31-0.38-3.19
			c0-1.88,0.75-3.13,2.26-3.76c4.89-1.88,14.23-3.89,28.03-6.02c13.41-2.14,23.13-3.2,29.15-3.2c4.89,0,7.68,3.23,8.37,9.68
			c0.69,6.46,1.53,9.68,2.54,9.68c-1.25,0,4.11-3.41,16.09-10.25c11.97-6.83,22.85-10.25,32.63-10.25c27.21,0,48.96,8.96,65.27,26.9
			C703.35,1376.37,711.25,1398.88,711.25,1426.58z M641.46,1426.21c0-10.03-3.08-18.81-9.22-26.33
			c-6.65-7.9-14.86-11.85-24.64-11.85c-10.04,0-18.06,3.95-24.08,11.85c-5.27,7.15-7.9,15.93-7.9,26.33
			c0,10.67,2.76,19.5,8.28,26.53c5.89,7.65,14.04,11.47,24.45,11.47C630.43,1464.2,641.46,1451.54,641.46,1426.21z"/>
		<path class="st0" d="M924.73,1423.02c0,9.65,0.56,24.01,1.69,43.07c1.13,19.07,1.69,33.36,1.69,42.89c0,5.02-2.2,7.71-6.58,8.09
			c-15.55,1.13-33.36,1.69-53.42,1.69c-2.38,0-3.98-3.61-4.8-10.81c-0.81-7.21-1.79-10.88-2.91-11c-1.01,0.5-2.32,1.56-3.95,3.19
			c-14.04,14.18-29.1,21.26-45.14,21.26c-24.45,0-44.7-9.65-60.76-28.96c-15.17-18.06-22.76-39.62-22.76-64.71
			c0-28.96,7.83-52.28,23.51-69.97c16.3-18.31,38.62-27.46,66.96-27.46c19.68,0,35.23,6.9,46.64,20.69c0.5,0.63,0.94,0.94,1.32,0.94
			c1.13,0,2.41-3.03,3.86-9.12c1.44-6.08,3.17-9.12,5.17-9.12c4.64,0,13.48,1.32,26.52,3.95c12.42,2.51,21.32,4.64,26.71,6.4
			c1.88,0.75,2.82,1.75,2.82,3.01c0,0.5-0.19,1.82-0.56,3.94C926.73,1373.67,924.73,1397.69,924.73,1423.02z M864.16,1424.14
			c0-10.65-3.35-19.47-10.06-26.42c-6.71-6.96-15.46-10.45-26.24-10.45c-10.79,0-19.5,3.45-26.14,10.35
			c-6.65,6.9-9.97,15.74-9.97,26.52c0,10.16,3.51,18.88,10.54,26.15c7.02,7.27,15.55,10.9,25.58,10.9
			c10.66,0,19.37-3.48,26.15-10.44C860.78,1443.79,864.16,1434.93,864.16,1424.14z"/>
		<path class="st0" d="M1044.36,1475.87c0,12.42-4.3,23.01-12.89,31.79s-19.03,13.17-31.32,13.17c-12.29,0-22.7-4.42-31.22-13.26
			c-8.53-8.84-12.79-19.4-12.79-31.7c0-12.29,4.26-22.82,12.79-31.6c8.52-8.78,18.93-13.17,31.22-13.17
			c12.29,0,22.73,4.39,31.32,13.17S1044.36,1463.58,1044.36,1475.87z"/>
		<path class="st0" d="M1267.05,1423.02c0,9.65,0.56,24.01,1.69,43.07c1.13,19.07,1.69,33.36,1.69,42.89c0,5.02-2.2,7.71-6.58,8.09
			c-15.55,1.13-33.36,1.69-53.42,1.69c-2.38,0-3.98-3.61-4.8-10.81c-0.81-7.21-1.79-10.88-2.91-11c-1.01,0.5-2.32,1.56-3.95,3.19
			c-14.04,14.18-29.1,21.26-45.14,21.26c-24.45,0-44.7-9.65-60.76-28.96c-15.17-18.06-22.76-39.62-22.76-64.71
			c0-28.96,7.83-52.28,23.51-69.97c16.3-18.31,38.62-27.46,66.96-27.46c19.68,0,35.23,6.9,46.65,20.69c0.5,0.63,0.94,0.94,1.32,0.94
			c1.13,0,2.41-3.03,3.86-9.12c1.44-6.08,3.17-9.12,5.17-9.12c4.64,0,13.48,1.32,26.52,3.95c12.42,2.51,21.32,4.64,26.71,6.4
			c1.88,0.75,2.82,1.75,2.82,3.01c0,0.5-0.19,1.82-0.56,3.94C1269.06,1373.67,1267.05,1397.69,1267.05,1423.02z M1206.48,1424.14
			c0-10.65-3.35-19.47-10.06-26.42c-6.71-6.96-15.46-10.45-26.24-10.45c-10.78,0-19.5,3.45-26.14,10.35
			c-6.65,6.9-9.97,15.74-9.97,26.52c0,10.16,3.51,18.88,10.54,26.15c7.02,7.27,15.55,10.9,25.58,10.9
			c10.66,0,19.37-3.48,26.15-10.44C1203.1,1443.79,1206.48,1434.93,1206.48,1424.14z"/>
		<path class="st0" d="M1381.78,1430.72c0,9.16,0.19,22.8,0.56,40.92c0.38,18.12,0.56,31.69,0.56,40.72c0,2.63-1.57,4.2-4.7,4.7
			c-4.27,0.75-13.86,1.13-28.78,1.13c-15.05,0-24.7-0.38-28.96-1.13c-2.76-0.5-4.45-1.32-5.08-2.45c-0.25-0.5-0.38-2.38-0.38-5.64
			c0-8.65,0.19-21.66,0.56-39.03c0.38-17.37,0.56-30.44,0.56-39.22c0-35.61-1.38-63.95-4.14-85.01c-0.25-2-0.38-3.32-0.38-3.95
			c0-2.51,1.69-3.76,5.08-3.76c3.51,0,8.87,0.38,16.08,1.13c7.21,0.75,12.63,1.13,16.27,1.13s9.09-0.31,16.36-0.94
			c7.27-0.63,12.73-0.94,16.36-0.94c3.01,0,4.52,1.25,4.52,3.76c0,0.5-0.13,1.69-0.38,3.57
			C1383.16,1370.16,1381.78,1398.5,1381.78,1430.72z M1386.67,1290.97c0,21.82-12.29,32.73-36.87,32.73
			c-10.53,0-19.25-2.76-26.14-8.28c-7.53-6.01-11.29-14.17-11.29-24.45c0-9.78,3.89-17.81,11.66-24.07
			c7.15-5.77,15.73-8.65,25.77-8.65c9.78,0,18.24,2.94,25.39,8.84C1382.85,1273.35,1386.67,1281.32,1386.67,1290.97z"/>
	</g>
</g>
</svg>
